ffmpeg started on 2025-05-12 at 16:29:41
Report written to "D:\Convert\FFMetrics\reports\ssim_report-6.txt"
Log level: 32
Command line:
ffmpeg -hide_banner -nostdin -i "G:\\\xc0\xed\xe8\xec\xe5\\\xce\xed\xe3\xee\xe8\xed\xe3\xe8\\!_35_\xcb\xe5\xf2\xee_2024\\DreamCast\\\xcc\xee\xff \xef\xee\xe4\xf0\xf3\xe3\xe0-\xee\xeb\xe5\xed\xe8\xf5\xe0, \xcd\xee\xea\xee\xf2\xe0\xed\\[DC] Shikanoko Nokonoko Koshitantan - 03_Telegram_HEVC.mkv" -i "G:\\\xc0\xed\xe8\xec\xe5\\\xce\xed\xe3\xee\xe8\xed\xe3\xe8\\!_35_\xcb\xe5\xf2\xee_2024\\DreamCast\\\xcc\xee\xff \xef\xee\xe4\xf0\xf3\xe3\xe0-\xee\xeb\xe5\xed\xe8\xf5\xe0, \xcd\xee\xea\xee\xf2\xe0\xed\\[DC] Shikanoko Nokonoko Koshitantan - 03_Telegram.mp4" -lavfi "[0:v]settb=AVTB,setpts=PTS-STARTPTS,format=pix_fmts=yuv420p10,fps=24000/1001,scale=1920:1080:flags=bicubic[main];[1:v]settb=AVTB,setpts=PTS-STARTPTS,format=pix_fmts=yuv420p,fps=24000/1001,scale=1920:1080:flags=bicubic[ref];[main][ref]ssim=eof_action=endall:stats_file='D\\:/Convert/FFMetrics/logs/ssim_logfile-6.txt'" -f null -
Input #0, matroska,webm, from 'G:\Аниме\Онгоинги\!_35_Лето_2024\DreamCast\Моя подруга-олениха, Нокотан\[DC] Shikanoko Nokonoko Koshitantan - 03_Telegram_HEVC.mkv':
  Metadata:
    COMPATIBLE_BRANDS: isomiso2avc1mp41
    MAJOR_BRAND     : isom
    MINOR_VERSION   : 512
    ENCODER         : Lavf61.7.100
  Duration: 00:23:41.74, start: -0.021000, bitrate: 1584 kb/s
  Stream #0:0: Video: hevc (Main 10), yuv420p10le(tv, bt709, progressive), 1920x1080 [SAR 1:1 DAR 16:9], 23.98 fps, 23.98 tbr, 1k tbn (default)
      Metadata:
        HANDLER_NAME    : VideoHandler
        VENDOR_ID       : [0][0][0][0]
        ENCODER         : Lavc61.19.100 libx265
        BPS             : 1386704
        DURATION        : 00:23:41.670708333
        NUMBER_OF_FRAMES: 34086
        NUMBER_OF_BYTES : 246429492
        _STATISTICS_WRITING_APP: mkvpropedit v66.0.0 ('Josie') 64-bit
        _STATISTICS_WRITING_DATE_UTC: 2025-05-08 10:13:08
        _STATISTICS_TAGS: BPS DURATION NUMBER_OF_FRAMES NUMBER_OF_BYTES
  Stream #0:1: Audio: aac (LC), 48000 Hz, stereo, fltp (default)
      Metadata:
        HANDLER_NAME    : SoundHandler
        VENDOR_ID       : [0][0][0][0]
        ENCODER         : Lavc61.19.100 aac
        BPS             : 193622
        DURATION        : 00:23:41.738000000
        NUMBER_OF_FRAMES: 66645
        NUMBER_OF_BYTES : 34410005
        _STATISTICS_WRITING_APP: mkvpropedit v66.0.0 ('Josie') 64-bit
        _STATISTICS_WRITING_DATE_UTC: 2025-05-08 10:13:08
        _STATISTICS_TAGS: BPS DURATION NUMBER_OF_FRAMES NUMBER_OF_BYTES
Input #1, mov,mp4,m4a,3gp,3g2,mj2, from 'G:\Аниме\Онгоинги\!_35_Лето_2024\DreamCast\Моя подруга-олениха, Нокотан\[DC] Shikanoko Nokonoko Koshitantan - 03_Telegram.mp4':
  Metadata:
    major_brand     : isom
    minor_version   : 512
    compatible_brands: isomiso2avc1mp41
    encoder         : Lavf61.1.100
  Duration: 00:23:41.72, start: 0.000000, bitrate: 3503 kb/s
  Stream #1:0[0x1](und): Video: h264 (High) (avc1 / 0x31637661), yuv420p(tv, bt709, progressive), 1920x1080 [SAR 1:1 DAR 16:9], 3356 kb/s, 23.98 fps, 23.98 tbr, 24k tbn (default)
      Metadata:
        handler_name    : VideoHandler
        vendor_id       : [0][0][0][0]
        encoder         : Lavc61.3.100 h264_qsv
  Stream #1:1[0x2](und): Audio: aac (HE-AACv2) (mp4a / 0x6134706D), 48000 Hz, stereo, fltp, 144 kb/s (default)
      Metadata:
        handler_name    : SoundHandler
        vendor_id       : [0][0][0][0]
Stream mapping:
  Stream #0:0 (hevc) -> settb:default
  Stream #1:0 (h264) -> settb:default
  ssim:default -> Stream #0:0 (wrapped_avframe)
  Stream #0:1 -> #0:1 (aac (native) -> pcm_s16le (native))
Output #0, null, to 'pipe:':
  Metadata:
    COMPATIBLE_BRANDS: isomiso2avc1mp41
    MAJOR_BRAND     : isom
    MINOR_VERSION   : 512
    encoder         : Lavf61.7.100
  Stream #0:0: Video: wrapped_avframe, yuv420p10le(tv, bt709, progressive), 1920x1080 [SAR 1:1 DAR 16:9], q=2-31, 200 kb/s, 23.98 fps, 23.98 tbn
      Metadata:
        encoder         : Lavc61.19.100 wrapped_avframe
  Stream #0:1: Audio: pcm_s16le, 48000 Hz, stereo, s16, 1536 kb/s (default)
      Metadata:
        HANDLER_NAME    : SoundHandler
        VENDOR_ID       : [0][0][0][0]
        _STATISTICS_TAGS: BPS DURATION NUMBER_OF_FRAMES NUMBER_OF_BYTES
        BPS             : 193622
        DURATION        : 00:23:41.738000000
        NUMBER_OF_FRAMES: 66645
        NUMBER_OF_BYTES : 34410005
        _STATISTICS_WRITING_APP: mkvpropedit v66.0.0 ('Josie') 64-bit
        _STATISTICS_WRITING_DATE_UTC: 2025-05-08 10:13:08
        encoder         : Lavc61.19.100 pcm_s16le
frame=  174 fps=0.0 q=-0.0 size=N/A time=00:00:07.25 bitrate=N/A speed=14.1x    frame=  384 fps=377 q=-0.0 size=N/A time=00:00:16.01 bitrate=N/A speed=15.7x    frame=  628 fps=407 q=-0.0 size=N/A time=00:00:26.19 bitrate=N/A speed=  17x    frame=  836 fps=405 q=-0.0 size=N/A time=00:00:34.86 bitrate=N/A speed=16.9x    frame= 1008 fps=389 q=-0.0 size=N/A time=00:00:42.04 bitrate=N/A speed=16.2x    frame= 1181 fps=380 q=-0.0 size=N/A time=00:00:49.25 bitrate=N/A speed=15.8x    frame= 1395 fps=385 q=-0.0 size=N/A time=00:00:58.18 bitrate=N/A speed=16.1x    frame= 1601 fps=386 q=-0.0 size=N/A time=00:01:06.77 bitrate=N/A speed=16.1x    frame= 1821 fps=390 q=-0.0 size=N/A time=00:01:15.95 bitrate=N/A speed=16.3x    frame= 2032 fps=393 q=-0.0 size=N/A time=00:01:24.75 bitrate=N/A speed=16.4x    frame= 2248 fps=394 q=-0.0 size=N/A time=00:01:33.76 bitrate=N/A speed=16.4x    frame= 2399 fps=387 q=-0.0 size=N/A time=00:01:40.05 bitrate=N/A speed=16.1x    frame= 2635 fps=392 q=-0.0 size=N/A time=00:01:49.90 bitrate=N/A speed=16.3x    frame= 2824 fps=389 q=-0.0 size=N/A time=00:01:57.78 bitrate=N/A speed=16.2x    frame= 3046 fps=393 q=-0.0 size=N/A time=00:02:07.04 bitrate=N/A speed=16.4x    frame= 3270 fps=395 q=-0.0 size=N/A time=00:02:16.38 bitrate=N/A speed=16.5x    frame= 3523 fps=401 q=-0.0 size=N/A time=00:02:26.93 bitrate=N/A speed=16.7x    frame= 3771 fps=405 q=-0.0 size=N/A time=00:02:37.28 bitrate=N/A speed=16.9x    frame= 4025 fps=410 q=-0.0 size=N/A time=00:02:47.87 bitrate=N/A speed=17.1x    frame= 4254 fps=411 q=-0.0 size=N/A time=00:02:57.42 bitrate=N/A speed=17.2x    frame= 4486 fps=413 q=-0.0 size=N/A time=00:03:07.10 bitrate=N/A speed=17.2x    frame= 4738 fps=417 q=-0.0 size=N/A time=00:03:17.61 bitrate=N/A speed=17.4x    frame= 4985 fps=420 q=-0.0 size=N/A time=00:03:27.91 bitrate=N/A speed=17.5x    frame= 5244 fps=423 q=-0.0 size=N/A time=00:03:38.71 bitrate=N/A speed=17.6x    frame= 5462 fps=423 q=-0.0 size=N/A time=00:03:47.81 bitrate=N/A speed=17.6x    frame= 5687 fps=423 q=-0.0 size=N/A time=00:03:57.19 bitrate=N/A speed=17.7x    frame= 5914 fps=424 q=-0.0 size=N/A time=00:04:06.66 bitrate=N/A speed=17.7x    frame= 6147 fps=425 q=-0.0 size=N/A time=00:04:16.38 bitrate=N/A speed=17.7x    frame= 6422 fps=429 q=-0.0 size=N/A time=00:04:27.85 bitrate=N/A speed=17.9x    frame= 6655 fps=429 q=-0.0 size=N/A time=00:04:37.56 bitrate=N/A speed=17.9x    frame= 6889 fps=430 q=-0.0 size=N/A time=00:04:47.32 bitrate=N/A speed=  18x    frame= 7144 fps=432 q=-0.0 size=N/A time=00:04:57.96 bitrate=N/A speed=  18x    frame= 7300 fps=428 q=-0.0 size=N/A time=00:05:04.47 bitrate=N/A speed=17.9x    frame= 7461 fps=425 q=-0.0 size=N/A time=00:05:11.18 bitrate=N/A speed=17.7x    frame= 7679 fps=425 q=-0.0 size=N/A time=00:05:20.27 bitrate=N/A speed=17.7x    frame= 7841 fps=422 q=-0.0 size=N/A time=00:05:27.03 bitrate=N/A speed=17.6x    frame= 8072 fps=423 q=-0.0 size=N/A time=00:05:36.66 bitrate=N/A speed=17.6x    frame= 8324 fps=424 q=-0.0 size=N/A time=00:05:47.18 bitrate=N/A speed=17.7x    frame= 8580 fps=426 q=-0.0 size=N/A time=00:05:57.85 bitrate=N/A speed=17.8x    frame= 8822 fps=427 q=-0.0 size=N/A time=00:06:07.95 bitrate=N/A speed=17.8x    frame= 9069 fps=429 q=-0.0 size=N/A time=00:06:18.25 bitrate=N/A speed=17.9x    frame= 9337 fps=431 q=-0.0 size=N/A time=00:06:29.43 bitrate=N/A speed=  18x    frame= 9580 fps=432 q=-0.0 size=N/A time=00:06:39.56 bitrate=N/A speed=  18x    frame= 9817 fps=432 q=-0.0 size=N/A time=00:06:49.45 bitrate=N/A speed=  18x    frame=10068 fps=433 q=-0.0 size=N/A time=00:06:59.91 bitrate=N/A speed=18.1x    frame=10304 fps=434 q=-0.0 size=N/A time=00:07:09.76 bitrate=N/A speed=18.1x    frame=10508 fps=433 q=-0.0 size=N/A time=00:07:18.27 bitrate=N/A speed=18.1x    frame=10720 fps=433 q=-0.0 size=N/A time=00:07:27.11 bitrate=N/A speed=  18x    frame=10950 fps=433 q=-0.0 size=N/A time=00:07:36.70 bitrate=N/A speed=18.1x    frame=11161 fps=433 q=-0.0 size=N/A time=00:07:45.50 bitrate=N/A speed=  18x    frame=11364 fps=432 q=-0.0 size=N/A time=00:07:53.97 bitrate=N/A speed=  18x    frame=11596 fps=432 q=-0.0 size=N/A time=00:08:03.64 bitrate=N/A speed=  18x    frame=11798 fps=431 q=-0.0 size=N/A time=00:08:12.07 bitrate=N/A speed=  18x    frame=12012 fps=431 q=-0.0 size=N/A time=00:08:21.00 bitrate=N/A speed=  18x    frame=12211 fps=430 q=-0.0 size=N/A time=00:08:29.30 bitrate=N/A speed=17.9x    frame=12412 fps=430 q=-0.0 size=N/A time=00:08:37.68 bitrate=N/A speed=17.9x    frame=12648 fps=430 q=-0.0 size=N/A time=00:08:47.52 bitrate=N/A speed=17.9x    frame=12905 fps=431 q=-0.0 size=N/A time=00:08:58.24 bitrate=N/A speed=  18x    frame=13177 fps=433 q=-0.0 size=N/A time=00:09:09.59 bitrate=N/A speed=18.1x    frame=13438 fps=434 q=-0.0 size=N/A time=00:09:20.47 bitrate=N/A speed=18.1x    frame=13687 fps=435 q=-0.0 size=N/A time=00:09:30.86 bitrate=N/A speed=18.1x    frame=13948 fps=436 q=-0.0 size=N/A time=00:09:41.74 bitrate=N/A speed=18.2x    frame=14203 fps=437 q=-0.0 size=N/A time=00:09:52.38 bitrate=N/A speed=18.2x    frame=14443 fps=437 q=-0.0 size=N/A time=00:10:02.39 bitrate=N/A speed=18.2x    frame=14664 fps=437 q=-0.0 size=N/A time=00:10:11.61 bitrate=N/A speed=18.2x    frame=14901 fps=437 q=-0.0 size=N/A time=00:10:21.49 bitrate=N/A speed=18.2x    frame=15137 fps=438 q=-0.0 size=N/A time=00:10:31.33 bitrate=N/A speed=18.3x    frame=15343 fps=437 q=-0.0 size=N/A time=00:10:39.93 bitrate=N/A speed=18.2x    frame=15579 fps=438 q=-0.0 size=N/A time=00:10:49.77 bitrate=N/A speed=18.3x    frame=15839 fps=439 q=-0.0 size=N/A time=00:11:00.61 bitrate=N/A speed=18.3x    frame=16087 fps=439 q=-0.0 size=N/A time=00:11:10.96 bitrate=N/A speed=18.3x    frame=16374 fps=441 q=-0.0 size=N/A time=00:11:22.93 bitrate=N/A speed=18.4x    frame=16633 fps=442 q=-0.0 size=N/A time=00:11:33.73 bitrate=N/A speed=18.4x    frame=16870 fps=442 q=-0.0 size=N/A time=00:11:43.61 bitrate=N/A speed=18.4x    frame=17112 fps=442 q=-0.0 size=N/A time=00:11:53.71 bitrate=N/A speed=18.4x    frame=17343 fps=442 q=-0.0 size=N/A time=00:12:03.34 bitrate=N/A speed=18.4x    frame=17596 fps=443 q=-0.0 size=N/A time=00:12:13.89 bitrate=N/A speed=18.5x    frame=17862 fps=444 q=-0.0 size=N/A time=00:12:24.99 bitrate=N/A speed=18.5x    frame=18093 fps=444 q=-0.0 size=N/A time=00:12:34.62 bitrate=N/A speed=18.5x    frame=18358 fps=445 q=-0.0 size=N/A time=00:12:45.68 bitrate=N/A speed=18.5x    frame=18619 fps=446 q=-0.0 size=N/A time=00:12:56.56 bitrate=N/A speed=18.6x    frame=18880 fps=446 q=-0.0 size=N/A time=00:13:07.45 bitrate=N/A speed=18.6x    frame=19117 fps=446 q=-0.0 size=N/A time=00:13:17.33 bitrate=N/A speed=18.6x    frame=19344 fps=446 q=-0.0 size=N/A time=00:13:26.80 bitrate=N/A speed=18.6x    frame=19607 fps=447 q=-0.0 size=N/A time=00:13:37.77 bitrate=N/A speed=18.6x    frame=19863 fps=448 q=-0.0 size=N/A time=00:13:48.45 bitrate=N/A speed=18.7x    frame=20093 fps=448 q=-0.0 size=N/A time=00:13:58.04 bitrate=N/A speed=18.7x    frame=20341 fps=448 q=-0.0 size=N/A time=00:14:08.38 bitrate=N/A speed=18.7x    frame=20529 fps=447 q=-0.0 size=N/A time=00:14:16.23 bitrate=N/A speed=18.6x    frame=20781 fps=448 q=-0.0 size=N/A time=00:14:26.74 bitrate=N/A speed=18.7x    frame=21032 fps=448 q=-0.0 size=N/A time=00:14:37.20 bitrate=N/A speed=18.7x    frame=21274 fps=448 q=-0.0 size=N/A time=00:14:47.30 bitrate=N/A speed=18.7x    frame=21503 fps=448 q=-0.0 size=N/A time=00:14:56.85 bitrate=N/A speed=18.7x    frame=21737 fps=448 q=-0.0 size=N/A time=00:15:06.61 bitrate=N/A speed=18.7x    frame=21930 fps=447 q=-0.0 size=N/A time=00:15:14.66 bitrate=N/A speed=18.7x    frame=22161 fps=447 q=-0.0 size=N/A time=00:15:24.29 bitrate=N/A speed=18.7x    frame=22405 fps=448 q=-0.0 size=N/A time=00:15:34.47 bitrate=N/A speed=18.7x    frame=22647 fps=448 q=-0.0 size=N/A time=00:15:44.56 bitrate=N/A speed=18.7x    frame=22900 fps=448 q=-0.0 size=N/A time=00:15:55.12 bitrate=N/A speed=18.7x    frame=23118 fps=448 q=-0.0 size=N/A time=00:16:04.21 bitrate=N/A speed=18.7x    frame=23377 fps=449 q=-0.0 size=N/A time=00:16:15.01 bitrate=N/A speed=18.7x    frame=23656 fps=450 q=-0.0 size=N/A time=00:16:26.65 bitrate=N/A speed=18.7x    frame=23877 fps=449 q=-0.0 size=N/A time=00:16:35.86 bitrate=N/A speed=18.7x    frame=24029 fps=448 q=-0.0 size=N/A time=00:16:42.20 bitrate=N/A speed=18.7x    frame=24293 fps=448 q=-0.0 size=N/A time=00:16:53.22 bitrate=N/A speed=18.7x    frame=24559 fps=449 q=-0.0 size=N/A time=00:17:04.31 bitrate=N/A speed=18.7x    frame=24810 fps=449 q=-0.0 size=N/A time=00:17:14.78 bitrate=N/A speed=18.7x    frame=25068 fps=450 q=-0.0 size=N/A time=00:17:25.54 bitrate=N/A speed=18.8x    frame=25331 fps=450 q=-0.0 size=N/A time=00:17:36.51 bitrate=N/A speed=18.8x    frame=25592 fps=451 q=-0.0 size=N/A time=00:17:47.39 bitrate=N/A speed=18.8x    frame=25852 fps=451 q=-0.0 size=N/A time=00:17:58.24 bitrate=N/A speed=18.8x    frame=26105 fps=452 q=-0.0 size=N/A time=00:18:08.79 bitrate=N/A speed=18.8x    frame=26374 fps=452 q=-0.0 size=N/A time=00:18:20.01 bitrate=N/A speed=18.9x    frame=26640 fps=453 q=-0.0 size=N/A time=00:18:31.11 bitrate=N/A speed=18.9x    frame=26886 fps=453 q=-0.0 size=N/A time=00:18:41.37 bitrate=N/A speed=18.9x    frame=27096 fps=453 q=-0.0 size=N/A time=00:18:50.12 bitrate=N/A speed=18.9x    frame=27333 fps=453 q=-0.0 size=N/A time=00:19:00.01 bitrate=N/A speed=18.9x    frame=27592 fps=453 q=-0.0 size=N/A time=00:19:10.81 bitrate=N/A speed=18.9x    frame=27862 fps=454 q=-0.0 size=N/A time=00:19:22.07 bitrate=N/A speed=18.9x    frame=28087 fps=454 q=-0.0 size=N/A time=00:19:31.46 bitrate=N/A speed=18.9x    frame=28346 fps=454 q=-0.0 size=N/A time=00:19:42.26 bitrate=N/A speed=18.9x    frame=28631 fps=455 q=-0.0 size=N/A time=00:19:54.15 bitrate=N/A speed=  19x    frame=28846 fps=455 q=-0.0 size=N/A time=00:20:03.11 bitrate=N/A speed=  19x    frame=29042 fps=454 q=-0.0 size=N/A time=00:20:11.29 bitrate=N/A speed=18.9x    frame=29286 fps=454 q=-0.0 size=N/A time=00:20:21.47 bitrate=N/A speed=18.9x    frame=29552 fps=455 q=-0.0 size=N/A time=00:20:32.56 bitrate=N/A speed=  19x    frame=29799 fps=455 q=-0.0 size=N/A time=00:20:42.86 bitrate=N/A speed=  19x    frame=30059 fps=455 q=-0.0 size=N/A time=00:20:53.71 bitrate=N/A speed=  19x    frame=30332 fps=456 q=-0.0 size=N/A time=00:21:05.09 bitrate=N/A speed=  19x    frame=30562 fps=456 q=-0.0 size=N/A time=00:21:14.69 bitrate=N/A speed=  19x    frame=30768 fps=455 q=-0.0 size=N/A time=00:21:23.28 bitrate=N/A speed=  19x    frame=30940 fps=454 q=-0.0 size=N/A time=00:21:30.45 bitrate=N/A speed=  19x    frame=31114 fps=454 q=-0.0 size=N/A time=00:21:37.71 bitrate=N/A speed=18.9x    frame=31359 fps=454 q=-0.0 size=N/A time=00:21:47.93 bitrate=N/A speed=18.9x    frame=31616 fps=454 q=-0.0 size=N/A time=00:21:58.65 bitrate=N/A speed=18.9x    frame=31828 fps=454 q=-0.0 size=N/A time=00:22:07.49 bitrate=N/A speed=18.9x    frame=32015 fps=453 q=-0.0 size=N/A time=00:22:15.29 bitrate=N/A speed=18.9x    frame=32158 fps=452 q=-0.0 size=N/A time=00:22:21.25 bitrate=N/A speed=18.8x    frame=32351 fps=451 q=-0.0 size=N/A time=00:22:29.30 bitrate=N/A speed=18.8x    frame=32528 fps=450 q=-0.0 size=N/A time=00:22:36.68 bitrate=N/A speed=18.8x    frame=32689 fps=449 q=-0.0 size=N/A time=00:22:43.40 bitrate=N/A speed=18.7x    frame=32860 fps=449 q=-0.0 size=N/A time=00:22:50.53 bitrate=N/A speed=18.7x    frame=33019 fps=448 q=-0.0 size=N/A time=00:22:57.16 bitrate=N/A speed=18.7x    frame=33193 fps=447 q=-0.0 size=N/A time=00:23:04.42 bitrate=N/A speed=18.6x    frame=33346 fps=446 q=-0.0 size=N/A time=00:23:10.80 bitrate=N/A speed=18.6x    frame=33499 fps=445 q=-0.0 size=N/A time=00:23:17.18 bitrate=N/A speed=18.6x    frame=33661 fps=444 q=-0.0 size=N/A time=00:23:23.94 bitrate=N/A speed=18.5x    frame=33814 fps=443 q=-0.0 size=N/A time=00:23:30.32 bitrate=N/A speed=18.5x    frame=33973 fps=442 q=-0.0 size=N/A time=00:23:36.95 bitrate=N/A speed=18.4x    [Parsed_ssim_10 @ 0000024d71b6c2c0] SSIM Y:0.994626 (22.697392) U:0.993412 (21.812608) V:0.993216 (21.685338) All:0.994189 (22.357535)
[out#0/null @ 0000024d64ec67c0] video:14646KiB audio:266580KiB subtitle:0KiB other streams:0KiB global headers:0KiB muxing overhead: unknown
frame=34086 fps=442 q=-0.0 Lsize=N/A time=00:23:41.67 bitrate=N/A speed=18.4x    
